<?xml version="1.0" encoding="utf-8"?>
<!-- Generator: Adobe Illustrator 27.5.0, SVG Export Plug-In . SVG Version: 6.00 Build 0)  -->
<svg version="1.1" xmlns="http://www.w3.org/2000/svg" xmlns:xlink="http://www.w3.org/1999/xlink" x="0px" y="0px"
	 viewBox="0 0 800 800" style="enable-background:new 0 0 800 800;" xml:space="preserve">
<g id="Layer_1">
</g>
<g id="Layer_3">
</g>
<g id="Layer_2">
	<g>
		<path id="XMLID_69_" style="fill:#FFFFFF;" d="M606.559,266.158c-0.164,0.021-0.936,0.493-1.735,2.404
			c-1.715,4.094-2.514,13.134,2.645,19.96c1.741,2.306,3.336,3.454,4.462,3.244c0.895-0.169,1.693-1.175,2.294-2.26
			c-0.303-3.78-0.497-7.164-0.636-10.194c-0.656,0.9-1.583,1.49-2.641,1.49c-1.981,0-3.588-1.986-3.588-4.435
			c0-0.944,0.243-1.815,0.65-2.535c0.282,0.331,0.687,0.551,1.155,0.551c0.849,0,1.538-0.688,1.538-1.538
			c0-0.32-0.121-0.601-0.289-0.847c0.175-0.033,0.351-0.066,0.534-0.066c0.922,0,1.744,0.461,2.38,1.168
			c-0.072-1.782-0.148-3.432-0.241-4.959C613.035,268.104,609.761,265.737,606.559,266.158z"/>
		<path id="XMLID_70_" style="fill:#31120C;" d="M401.419,610.991c1.664,2.559,3.187,5.019,4.544,7.33l-0.001-0.041l28.821-0.948
			c-3.687-5.554-7.296-12.289-10.604-19.887C416.327,605.493,406.106,609.481,401.419,610.991z"/>
		<path id="XMLID_71_" style="fill:#31120C;" d="M463.526,573.145c-0.776-3.028-2.239-8.537-4.161-8.505
			c-1.319,0.108-1.971,3.382-2.543,6.269c-0.854,4.304-1.823,9.185-5.621,11.149c-1.097,0.57-2.246,0.665-3.332,0.282
			c-2.766-0.982-4.439-4.799-6.207-8.838c-1.123-2.57-2.665-6.085-3.836-6.531c-1.987,0.808-2.072,4.003-2.154,7.094
			c-0.111,4.288-0.239,9.153-4.612,10.609c-0.648,0.216-1.3,0.314-1.948,0.314c-2.442,0-4.838-1.417-6.939-3.275
			c4.56,14.017,10.219,26.358,16.331,35.185c6.216,8.972,12.747,14.214,18.888,15.16c17.189,2.635,21.418-0.036,22.44-1.306
			c0.508-0.638,0.495-1.29,0.426-1.666c-2.343-2.128-12.361-13.344-14.38-50.448C464.793,577.847,464.287,576.094,463.526,573.145z"
			/>
		<path id="XMLID_72_" style="fill:#FFFFFF;" d="M258.071,557.281c0.432,4.134,15.382,9.968,23.412,13.101
			c7.729,3.015,10.299,4.102,11.146,5.46c2.131,3.408-3.46,7.261-11.929,13.091c-4.206,2.897-8.553,5.892-11.385,8.567
			c-0.534,0.504-0.465,0.74-0.432,0.854c1.077,3.748,19.847,9.689,36.621,13.045c1.856,0.37,2.063,1.702,2.082,2.098
			c0.268,5.487-38.807,20.165-41.03,20.843c-0.082,0.026-0.157,0.049-0.226,0.072c3.391,2.998,22.404,8.845,28.453,9.65
			c1.679,0.226,2.259,1.418,2.242,2.373c-0.062,3.758-14.709,14.194-26.054,20.419c11.695-1.609,23.398-4.195,34.801-7.917
			c66.708-21.775,96.935-22.898,105.748-22.62c-6.396-14.546-43.045-88.655-126.457-94.396c-1.645,0.619-13.061,5.058-25.199,13.023
			C258.598,555.775,257.995,556.561,258.071,557.281z"/>
		<path id="XMLID_73_" style="fill:#EF8D23;" d="M517.481,178.118c-20.655,20.315-23.709,55.691-24.149,67.141
			c7.657-3.003,15.952-5.653,24.921-7.796c6.949-32.681,1.875-59.333,0.027-67.157c-37.332,27.865-59.199,80.953-65.23,97.197
			c9.972-7.42,22.218-14.783,36.922-20.893c0.247-5.821,1.372-21.122,5.987-37.527C502.285,186.595,517.481,178.118,517.481,178.118
			z"/>
		<path id="XMLID_74_" style="fill:#EF8D23;" d="M562.381,231.435c7.38-0.193,14.884,0.137,21.614,1.396
			c0.41-3.844,1.775-12.693,6.342-22.371c5.841-12.377,13.6-15.467,13.6-15.467c-12.76,14.657-15.931,33.251-16.602,38.564
			c5.171,1.273,9.751,3.177,13.24,5.954c2.059,1.638,3.824,3.162,5.374,4.624l2.469-57.501
			C579.837,201.643,566.357,223.823,562.381,231.435z"/>
		<path id="XMLID_75_" style="fill:#31120C;" d="M653.921,316.935c1.779-4,2.741-11.724,3.1-16.14
			c-2.591,0.06-7.591,0.111-13.614-0.147C643.34,303.328,643.884,312.692,653.921,316.935z"/>
		<path id="XMLID_25_" style="fill:#EF8D23;" d="M523.357,489.454c-16.421,15.672-31.019,16.922-34.896,16.958
			c-7.687,9.763-15.819,24.328-18.591,44.141c0.18,2.062,0.834,8.36,2.629,16.65c1.073-4.784,2.936-9.517,6.138-10.073
			c3.925-0.671,5.561,4.216,7.179,8.947c0.681,1.99,2.095,6.134,3.005,6.328c0.891-0.432,1.66-4.95,2.076-7.379
			c0.92-5.405,1.876-10.996,5.846-11.47c3.938-0.504,5.951,4.579,7.883,9.47c0.884,2.242,2.714,6.874,3.787,6.874
			c0.013,0,0.03,0,0.046-0.003c1.1-0.314,2.547-5.513,3.323-8.308c1.467-5.28,2.733-9.84,5.598-10.957
			c0.537-0.214,1.305-0.332,2.205-0.103c3.812-21.831,10.536-44.935,15.884-63.272c2.427-8.319,4.643-15.927,6.235-22.19
			C536.905,473.834,530.906,482.249,523.357,489.454z"/>
		<path id="XMLID_79_" style="fill:#FFFFFF;" d="M558.618,294.139c11.946-11.557,9.744-22.512,8.52-26.111
			c-23.3-3.683-33.988,3.879-38.478,9.398C530.368,279.909,538.695,290.423,558.618,294.139z M555.016,275.853
			c0.442,0.518,1.076,0.864,1.81,0.864c1.331,0,2.41-1.079,2.41-2.409c0-0.502-0.189-0.942-0.452-1.327
			c0.275-0.051,0.55-0.104,0.836-0.104c3.105,0,5.622,3.111,5.622,6.949c0,3.838-2.517,6.948-5.622,6.948
			c-3.105,0-5.621-3.111-5.621-6.948C553.998,278.345,554.378,276.98,555.016,275.853z"/>
		<path id="XMLID_31_" style="fill:#EF8D23;" d="M519.359,453.19c-1.886,2.095-5.028,2.724-5.028,2.724
			c10.475-25.56,5.866-44.415,5.866-44.415c-3.761,3.056-5.574,4.107-6.473,4.464c-1.815,2.56-3.066,3.887-3.066,3.887
			c15.353-31.891,13.373-44.484,10.822-49.15c-1.827-3.352-4.465-3.764-4.491-3.768c-24.257-2.82-36.703-13.638-37.223-14.098
			l-3.306-2.93h4.419c2.383,0,4.874-0.162,7.277-0.409c-17.16-2.664-32.575-9.701-33.4-10.081l-2.851-1.316l20.371-12.436
			l-20.286,4.697l6.223-10.369c5.232-9.126,12.831-18.885,19.75-26.999c8.907-10.447,19.179-15.922,19.179-15.922
			c-0.242,0.239-24.28,24.109-36.038,44.616l-2.173,3.626l25.1-5.811l-0.077-0.045c0.671-0.456,24.98-14.438,41.07-5.079
			c11.339,6.599,39.94,13.089,57.191,7.82c5.673-1.728,9.51-4.59,11.408-8.502c5.235-10.788,14.216-15.221,21.353-17.04
			c-4.661-1.362-8.774-3.144-11.683-5.508c-5.643-4.586-7.607-10.84-7.897-16.773c-0.442-9.019,6.309-16.559,6.309-16.559
			c-0.075,0.176-6.205,15.143-0.412,25.728c-1.914-6.289-1.066-12.679,0.438-16.276c1.119-2.669,2.635-4.202,4.39-4.432
			c2.542-0.33,4.944,0.473,6.633,1.276c-0.994-8.745-3.754-13.614-14.267-21.978c-18.636-14.824-73.664-2.735-74.221-2.609
			c-11.374,2.388-21.676,5.618-31.008,9.358c0,0.026,0.001,0.074,0.001,0.081l-0.214,0.004
			c-44.193,17.776-66.056,47.223-71.486,55.441l28.083,3.239l-29.956,7.766c2.747,28.399,17.235,45.343,54.688,64.28
			c38.146,19.286,24.856,60.28,24.715,60.689l-0.887,2.638l-6.478-6.819c0.565,8.48-0.442,17.325-2.127,25.551
			c-3.804,18.569-14.559,33.523-14.559,33.523c0.17-0.357,16.911-35.914,12.842-63.565l-0.769-5.231l9.572,10.076
			c2.222-9.172,6.553-38.516-23.822-53.871c-19.63-9.926-33.241-19.581-42.239-30.608c-1.735,8.089-7.864,20.904-27.183,36.559
			c-8.622,6.987-19.395,12.752-30.8,18.854c-31.577,16.892-83.108,46.536-94.282,121.469c0,0-0.115-14.264,4.675-31.423
			c-5.389-9.645-22.113-28.635-67.248-28.635c-24.057,0-43.875,7.676-58.904,22.813c-19.572,19.71-30.201,51.882-29.926,90.585
			c0.183,25.887,11.552,47.688,32.879,63.044c25.163,18.124,62.563,25.975,101.036,22.642c8.197-2.45,28.544-16.076,32.272-20.835
			c-5.951-1.277-30.1-7.323-30.545-12.783c-0.085-1.038,0.363-2.439,2.982-3.237c8.593-2.616,31.501-12.652,37.443-16.819
			c-8.973-1.886-35.338-7.987-37.364-15.035c-0.245-0.861-0.399-2.557,1.352-4.213c3.021-2.854,7.48-5.922,11.788-8.891
			c4.039-2.782,10.053-6.92,10.832-8.642c-1.228-0.855-5.709-2.603-9.365-4.027c-14.099-5.499-24.931-10.161-25.531-15.874
			c-0.216-2.069,0.891-3.915,3.29-5.49c7.83-5.137,14.606-8.554,18.995-10.55c-0.765-0.011-1.505-0.062-2.277-0.062
			c-0.285,0-31.583-1.958-62.566,16.528c0,0,17.717-19.874,62.707-19.874c51.758,0,87.12,25.34,109.475,50.433
			c3.629-7.581,18.453-41.188,9.003-65.992c-4.141-10.868-12.488-18.738-24.81-23.383c-32.565-12.279-59.863,19.854-60.134,20.178
			c0,0,8.632-15.364,25.231-22.212c10.304-4.25,22.754-6.129,36.088-1.103c13.261,5.002,22.266,13.523,26.761,25.334
			c10.744,28.217-7.497,65.511-9.741,69.918c4.912,5.745,9.131,11.41,12.724,16.723c3.927-1.203,15.362-5.307,23.268-14.05
			c-2.572-6.273-4.936-13.021-6.956-20.107c-0.261-0.417-0.445-0.728-0.541-0.893l0.259-0.151
			c-3.772-13.508-6.329-28.094-6.833-42.483c-0.984-28.113,5.406-40.478,5.406-40.478c-5.305,25.293-1.927,56.97,5.698,83.931
			c2.6,3.682,7.032,8.739,10.217,7.642c1.994-0.665,2.213-3.408,2.324-7.516c0.101-3.922,0.219-8.367,3.787-10.014
			c0.959-0.442,1.954-0.484,2.907-0.124c2.488,0.946,3.984,4.36,5.716,8.318c1.205,2.757,2.858,6.528,4.255,7.022
			c0.098,0.033,0.285,0.101,0.675-0.098c2.363-1.221,3.165-5.261,3.873-8.822c0.844-4.252,1.715-8.648,5.562-8.956
			c3.363-0.365,5.206,3.003,6.443,6.707c-0.011-0.995-0.024-1.985-0.024-3.011c0-19.555,5.032-35.13,11.389-47.003
			c7.72-14.418,18.396-21.984,23.894-25.149C521.11,470.588,519.359,453.19,519.359,453.19z M537.039,267.098
			c7.225-3.187,17.834-4.87,33.257-1.985c2.974,0.568,8-1.331,9.146-4.594c0,0,0.716,7.579-8.508,7.922
			c1.577,5.059,2.626,15.322-8.39,26.338c1.74,0.225,3.554,0.402,5.454,0.517c0,0-9.017,2.945-17.147,0.569
			c-15.957-4.664-22.524-13.123-24.151-15.578c-0.654,1.159-0.946,1.967-0.999,2.124C525.7,282.412,525.723,272.091,537.039,267.098
			z"/>
		<path id="XMLID_32_" style="fill:#FFFFFF;" d="M640.075,300.474c-5.025-0.299-10.522-0.831-15.84-1.734
			c-4.485-0.031-20.118,1.013-27.594,16.419c-2.324,4.786-6.848,8.233-13.448,10.244c-4.662,1.422-10.109,2.03-15.827,2.03
			c-16.482,0-35.236-5.043-44.029-10.16c-14.059-8.179-36.067,3.209-36.808,3.617l-27.421,16.738
			c9.133,5.572,44.539,12.276,44.539,12.276c-0.409,0.098-9.195,2.542-17.808,3.162c5.267,3.326,15.886,8.716,31.55,10.537
			c0.19,0.023,4.36,0.589,7.035,5.488c2.008,3.678,3.508,10.032,0.916,20.645c-3.116,12.761-8.313,21.567-11.615,26.227
			c0.899-0.357,2.712-1.408,6.473-4.464c0,0,4.609,18.855-5.866,44.415c0,0,3.143-0.629,5.028-2.724c0,0,1.75,17.398-18.56,39.655
			c2.206-1.27,3.603-1.852,3.603-1.852c-0.163,0.103-7.574,4.935-15.584,14.974c49.287-14.466,65.079-70.655,66.311-97.832
			c-5.617,6.775-11.122,14.08-15.867,21.591c0,0,5.028-12.92,18.995-30.378c8.807-11.009,20.257-21.613,26.373-26.954l-26.906,4.998
			l28.722-8.744c58.027-8.871,65.503-42.314,66.395-48.546C640.768,315.14,640.022,303.719,640.075,300.474z"/>
		<path id="XMLID_86_" style="fill:#31120C;" d="M515.009,562.486c-1.535,5.532-2.864,10.311-6.118,10.737
			c-3.676,0.484-5.467-4.112-7.385-8.966c-1.113-2.818-2.959-7.539-4.363-7.375c-1.49,0.18-2.399,5.519-2.943,8.708
			c-0.897,5.277-1.676,9.83-5.057,10.154c-3.382,0.265-4.93-3.994-6.498-8.583c-0.753-2.2-2.301-6.734-3.368-6.734
			c-0.023,0-0.043,0-0.062,0.003c-1.991,0.348-3.961,8.146-4.607,15.309c4.522,16.233,13.156,36.296,29.437,48.39
			c1.394,0.514,11.464,3.81,25.854-1.352c3.29-1.182,3.768-1.804,3.83-1.915c-0.101-0.354-1.447-1.738-2.527-2.851
			c-5.352-5.506-15.313-15.755-14.564-41.053c0.216-7.273,1.09-15.074,2.383-23.086c-0.134-0.08-0.303-0.172-0.422-0.117
			C517.294,554.263,515.863,559.412,515.009,562.486z"/>
		<path id="XMLID_132_" style="fill:#C56A28;" d="M294.456,647.715l-0.629-1.781l-30.378-11.418l11.347-5.158
			c-4.538,0.45-9.387,0.881-14.594,1.282c-54.471,4.19-75.003-17.598-75.003-17.598c15.084,0,21.37-1.676,21.37-1.676
			c-55.309-10.056-76.26-72.489-76.26-72.489l-5.307,30.588l1.536,34.079l17.878,31.146l28.353,20.951l46.231,13.827l40.225,0.279
			l6.943-1.194l24.099-16.02L294.456,647.715z"/>
		<path id="XMLID_131_" style="fill:#D6D6D6;" d="M327.243,626.032l20.531-4.19c-15.537-2.653-30.052,3.263-72.979,7.517
			l-11.347,5.158l30.378,11.418l0.629,1.781l-4.19,4.819l-24.099,16.02l23.925-4.114c0,0,49.862-12.151,70.952-18.576
			c21.09-6.425,52.097-7.682,52.097-7.682C388.419,621.422,327.243,626.032,327.243,626.032z"/>
		<path id="XMLID_130_" style="fill:#C56A28;" d="M283.387,498.234l0.14-2.095c0,0-10.475-15.922-21.509-19.554
			c-11.034-3.631-32.264-8.24-32.264-8.24s14.526,6.704,23.185,13.688c0,0-26.817,4.469-47.488,18.716
			c0,0,24.023-2.514,43.856,3.632c0,0-41.622,14.246-53.354,51.678c0,0,19.833-7.542,32.683-8.38
			c12.85-0.838,23.465-10.894,46.929-8.38c23.465,2.514,48.047,7.542,48.047,7.542l30.448,17.598l24.582,19.275l7.542,9.218
			l12.57,16.202l3.631,0.559l22.347-13.688l-10.056-32.403l-4.19-35.476l1.117-26.258l1.676-10.615c0,0-10.894,21.788-11.732,54.751
			c0,0-5.447,28.632-14.386,36.454c0,0-23.862-62.526-77.796-60.198C270.538,523.933,283.387,498.234,283.387,498.234z"/>
		<path id="XMLID_129_" style="fill:#C56A28;" d="M309.366,517.508c0,0,20.112-43.856,65.924-27.655
			c45.812,16.202,22.347,78.774,22.347,78.774h-2.793c0,0,18.962-50.649-24.128-70.917
			C340.652,483.568,309.366,517.508,309.366,517.508z"/>
		<path id="XMLID_128_" style="fill:#C56A28;" d="M387.371,584.34c0,0,4.819-37.082-12.78-52.795c0,0,5.238,20.741-1.047,36.663
			L387.371,584.34z"/>
		<path id="XMLID_127_" style="fill:#C56A28;" d="M480.279,560.48c0,0,6.607-37.106,21.412-44.648
			c14.805-7.542,36.174-23.604,39.387-39.247c3.212-15.643,3.631-16.481,3.631-16.481s-18.018,28.912-31.286,36.035
			c-13.269,7.123-27.515,11.034-27.515,11.034l-16.202,30.588l-2.374,18.297l5.447,15.643
			C472.78,571.7,476.787,556.709,480.279,560.48z"/>
		<path id="XMLID_126_" style="fill:#C56A28;" d="M476.132,554.94c0,0,14.665-13.967,22.208-19.414
			c7.542-5.447,16.76-16.341,18.297-20.112c0,0-18.017,12.71-36.035,14.386C462.584,531.475,476.132,554.94,476.132,554.94z"/>
		<path id="XMLID_125_" style="fill:#C56A28;" d="M430.879,349.904l-8.939,17.598c0,0,32.403,22.906,48.046,26.817
			c15.643,3.911,18.716,24.023,18.716,24.023l-13.129-7.822c0,0,15.922,49.164,1.397,80.45c0,0,15.643-24.023,13.129-57.265
			l7.821,6.145c0,0,10.615-31.845-15.364-53.354c0,0-39.666-18.995-52.237-37.431"/>
		<path id="XMLID_124_" style="fill:#D6D6D6;" d="M638.428,346.831c0,0-22.627,15.084-86.316,8.939c0,0,17.598,8.38,24.303,9.218
			c0,0-44.415,3.073-71.232-13.129l7.542-3.631c0,0-20.671-10.615-29.889-20.112l-25.141,9.218l14.526,6.39l16.656,4.609
			l6.076,1.781l-12.989,2.514l17.179,7.856l18.751,5.028l4.609,4.085l1.781,5.657l0.733,12.57l-5.866,17.703l-5.185,8.694
			l-0.786,1.938l5.831-3.823c0,0,2.095,27.934-7.682,46.51l6.704-2.235c0,0-13.129,27.375-19.414,35.057
			c-6.285,7.682-11.732,14.945-11.732,14.945s19.973-4.051,26.537-10.475c6.565-6.425,27.375-31.286,27.375-31.286l6.425-15.503
			l8.241-29.191l0.698-16.76l22.627-23.744l9.079-7.961l17.738-5.307l23.604-11.034L638.428,346.831z"/>
		<path id="XMLID_123_" style="fill:#C56A28;" d="M483.953,288.449c0,0-22.347,11.174-40.225,45.253l10.336-1.397l-9.498,5.587
			c0,0,16.202,11.453,27.375,12.291l-6.425,1.676c0,0,21.788,20.671,54.751,18.157l4.016,5.238c0,0,3.247-10.824-17.424-12.221
			c-20.671-1.397-25.141-12.012-25.141-12.012l13.234-0.908c0,0-27.759-4.679-37.257-12.78l21.788-14.246l-23.744,3.631
			L483.953,288.449z"/>
		<path id="XMLID_122_" style="fill:#C56A28;" d="M411.464,530.497c0,0,1.816,20.112,12.291,36.873c0,0-0.838-15.643,1.397-24.722
			c0,0,6.983,20.392,10.615,22.766l-2.235,9.917l-1.676,6.844l-2.933,0.559l-9.498-4.888
			C419.426,577.845,411.185,540.135,411.464,530.497z"/>
		<path id="XMLID_121_" style="fill:#C56A28;" d="M490.797,247.107c0,0,3.492-56.566,30.169-70.813c0,0,1.816,13.269,1.816,16.481
			c0,3.212-0.698,27.096-0.698,27.096l-3.073,18.017L490.797,247.107z"/>
		<path id="XMLID_120_" style="fill:#C56A28;" d="M584.935,234.816c0,0,5.761-38.689,25.245-42.041l-3.143,54.576
			C607.037,247.352,596.876,235.689,584.935,234.816z"/>
		<g id="XMLID_20_">
			<path id="XMLID_27_" style="fill:#060606;" d="M558.658,403.974c-1.178,1.366-2.354,2.744-3.528,4.16
				c-1.232,27.177-17.024,83.365-66.311,97.832c-0.12,0.15-0.238,0.294-0.358,0.446c3.877-0.036,18.475-1.286,34.896-16.958
				c7.549-7.205,13.548-15.62,18.347-24.386c1.024-4.026,1.796-7.509,2.184-10.228l3.617-2.382
				c-0.039,0.273-0.108,0.629-0.155,0.923C555.508,434.011,558.369,414.737,558.658,403.974z"/>
			<path id="XMLID_88_" style="fill:#060606;" d="M419.782,573.85c-7.625-26.961-11.004-58.638-5.698-83.931
				c0,0-6.39,12.365-5.406,40.478c0.504,14.389,3.061,28.975,6.833,42.483l2.641-1.532
				C418.525,571.989,419.093,572.874,419.782,573.85z"/>
			<path id="XMLID_28_" style="fill:#060606;" d="M476.906,517.994c-6.357,11.873-11.389,27.448-11.389,47.003
				c0,1.027,0.013,2.016,0.024,3.011c0.484,1.452,0.885,2.948,1.233,4.301c0.367,1.427,0.871,3.382,1.188,3.811
				c-0.003-0.003-0.138-0.18-0.448-0.285l-1.061,3.182c-0.226-0.076-0.39-0.245-0.576-0.38c2.019,37.104,12.037,48.32,14.38,50.448
				c0.069,0.376,0.082,1.028-0.426,1.666c-1.021,1.27-5.251,3.941-22.44,1.306c-6.141-0.946-12.672-6.187-18.888-15.16
				c-6.112-8.828-11.771-21.169-16.331-35.185c-2.947-2.606-5.312-6.085-6.379-7.79c2.02,7.086,4.383,13.835,6.956,20.107
				c0.28-0.309,0.571-0.603,0.841-0.924l2.566,2.161c-0.638,0.757-1.299,1.482-1.977,2.177c3.307,7.598,6.917,14.333,10.604,19.887
				l3.024-0.099l0.111,3.352l-0.839,0.027c6.435,8.73,13.089,13.727,19.802,14.759c5.097,0.786,9.444,1.179,13.065,1.179
				c6.488,0,10.639-1.264,12.58-3.804c1.535-2.01,1.179-4.278,0.723-5.3l-0.19-0.403l-0.337-0.259
				c-0.139-0.103-13.468-10.904-13.836-59.74c-1.677-8.455-2.069-14.385-2.109-15.079l3.035-2.141c0.002,0.033,0.02,0.29,0.058,0.73
				c2.771-19.813,10.904-34.378,18.591-44.141c0.12-0.152,0.238-0.297,0.358-0.446c8.01-10.039,15.422-14.87,15.584-14.974
				c0,0-1.397,0.582-3.603,1.852c-2.959,3.243-6.382,6.588-10.352,9.998c3.97-3.41,7.392-6.755,10.352-9.998
				C495.301,496.01,484.626,503.576,476.906,517.994z"/>
			<path id="XMLID_33_" style="fill:#060606;" d="M543.888,454.84c-0.388,2.719-1.16,6.202-2.184,10.228
				c-1.593,6.263-3.808,13.871-6.235,22.19c-5.348,18.337-12.073,41.441-15.884,63.272c0.406,0.104,0.831,0.258,1.287,0.542
				l-1.768,2.848c-0.023-0.014-0.057-0.03-0.085-0.047c-1.293,8.012-2.167,15.813-2.383,23.086
				c-0.75,25.297,9.212,35.547,14.564,41.053c1.08,1.113,2.426,2.498,2.527,2.851c-0.062,0.111-0.54,0.733-3.83,1.915
				c-14.391,5.162-24.46,1.866-25.854,1.352c-16.282-12.094-24.915-32.157-29.437-48.39c-0.029,0.325-0.059,0.651-0.083,0.973
				l-3.345-0.249c0.138-1.864,0.497-5.577,1.323-9.26c-1.796-8.291-2.45-14.588-2.629-16.65c-0.038-0.44-0.056-0.697-0.058-0.73
				l-3.035,2.141c0.04,0.694,0.432,6.624,2.109,15.079c3.364,16.96,11.921,44.13,33.346,59.917l0.344,0.196
				c0.285,0.118,4.54,1.863,11.595,1.863c4.557,0,10.282-0.727,16.859-3.087c3.339-1.198,5.5-2.331,5.945-4.262
				c0.475-2.036-1.139-3.695-3.372-5.994c-5.005-5.152-14.325-14.74-13.614-38.621c0.818-27.537,11.153-62.982,18.698-88.863
				c3.87-13.263,7.477-27.358,8.663-34.812c0.047-0.295,0.116-0.65,0.155-0.923L543.888,454.84z"/>
			<path id="XMLID_91_" style="fill:#060606;" d="M284.202,499.828c-0.308-0.678-0.7-1.453-1.167-2.29
				c-4.791,17.159-4.676,31.423-4.676,31.423c11.173-74.933,62.705-104.577,94.282-121.469c11.405-6.102,22.178-11.867,30.8-18.854
				c19.319-15.655,25.448-28.47,27.183-36.559c-1.002-1.228-1.963-2.467-2.851-3.731c-0.633,6.726-4.975,20.29-26.44,37.684
				c-8.377,6.788-19.012,12.477-30.273,18.504c-26.42,14.131-57.852,31.27-79.706,71.932c-2.952,5.492-5.202,11.126-6.966,16.584
				c0.585,0.896,1.12,1.764,1.558,2.565L284.202,499.828z"/>
			<path id="XMLID_92_" style="fill:#060606;" d="M260.872,667.987c-38.472,3.333-75.873-4.518-101.036-22.642
				c-21.327-15.356-32.696-37.157-32.879-63.044c-0.275-38.703,10.354-70.875,29.926-90.585
				c15.029-15.137,34.846-22.813,58.904-22.813c45.135,0,61.859,18.99,67.248,28.635c0.468,0.837,0.859,1.612,1.167,2.29l1.743-4.21
				c-0.438-0.801-0.972-1.67-1.558-2.565c-7.058-10.803-25.384-27.501-68.601-27.501c-24.98,0-45.6,8.007-61.282,23.802
				c-20.208,20.352-31.18,53.368-30.901,92.974c0.191,26.997,12.043,49.732,34.272,65.739c21.967,15.821,52.967,24.06,85.951,24.06
				c5.188,0,10.426-0.205,15.685-0.615l-0.315-3.149C259.669,668.314,260.244,668.175,260.872,667.987z"/>
			<path id="XMLID_93_" style="fill:#060606;" d="M405.963,618.321c-1.358-2.311-2.881-4.772-4.544-7.33
				c-1.446,0.466-2.394,0.709-2.547,0.746l-0.792-3.254c0.027-0.007,0.549-0.141,1.402-0.402
				c-3.593-5.312-7.812-10.977-12.724-16.723c-0.094,0.183-0.169,0.331-0.204,0.397l-2.973-1.558
				c0.023-0.045,0.314-0.611,0.778-1.58c-22.355-25.093-57.717-50.433-109.475-50.433c-44.99,0-62.707,19.873-62.707,19.873
				c30.984-18.486,62.282-16.528,62.567-16.528c0.773,0,1.512,0.051,2.277,0.062c3.134-1.425,5.06-2.131,5.242-2.197l3.018,2.445
				c-0.007,0.002-0.091,0.034-0.217,0.081c83.411,5.741,120.06,79.851,126.457,94.396c-8.812-0.278-39.04,0.844-105.748,22.62
				c-11.403,3.722-23.106,6.309-34.801,7.917c-3.913,2.147-7.441,3.804-9.831,4.498c15.292-1.317,30.741-4.356,45.673-9.227
				c78.888-25.75,106.798-22.315,107.073-22.283l2.799,0.386l-0.998-2.639c-0.095-0.25-2.58-6.617-7.853-16.016l-1.762,0.058
				L405.963,618.321z"/>
			<path id="XMLID_94_" style="fill:#060606;" d="M396.498,521.44c-4.495-11.811-13.5-20.332-26.761-25.334
				c-13.334-5.026-25.784-3.148-36.088,1.102c-16.6,6.848-25.231,22.211-25.231,22.211c0.272-0.324,27.57-32.457,60.134-20.178
				c12.322,4.645,20.669,12.515,24.81,23.383c9.45,24.803-5.374,58.411-9.003,65.992c-0.464,0.97-0.755,1.536-0.778,1.58
				l2.973,1.558c0.034-0.066,0.11-0.214,0.204-0.397C389.001,586.95,407.242,549.657,396.498,521.44z"/>
			<polygon id="XMLID_95_" style="fill:#060606;" points="437.806,617.232 434.783,617.332 405.962,618.28 405.963,618.321 
				406.073,621.632 407.835,621.574 437.079,620.612 437.918,620.584 			"/>
			<path id="XMLID_96_" style="fill:#060606;" d="M399.481,608.08c-0.853,0.261-1.374,0.395-1.402,0.402l0.792,3.254
				c0.153-0.037,1.101-0.28,2.547-0.746c4.688-1.509,14.908-5.497,22.76-13.546c0.678-0.695,1.339-1.421,1.977-2.177l-2.566-2.161
				c-0.27,0.321-0.562,0.615-0.841,0.924C414.843,602.773,403.408,606.878,399.481,608.08z"/>
			<path id="XMLID_97_" style="fill:#060606;" d="M614.694,294.763c-0.041-0.405-0.065-0.757-0.103-1.153
				c-0.438,0.713-1.071,1.265-2.028,1.448c-0.304,0.059-0.612,0.087-0.92,0.087c-2.239,0.002-4.54-1.544-6.852-4.603
				c-1.67-2.211-2.768-4.598-3.499-6.999c-5.793-10.586,0.337-25.552,0.412-25.728c0,0-6.751,7.54-6.309,16.559
				c0.29,5.934,2.254,12.188,7.897,16.773c2.909,2.364,7.022,4.146,11.683,5.507c4.279-1.09,7.893-1.254,9.625-1.247
				c-2.274-0.384-4.494-0.84-6.61-1.376c0.014,0.137,0.021,0.256,0.035,0.394L614.694,294.763z"/>
			<path id="XMLID_98_" style="fill:#060606;" d="M625.697,295.593l-0.25,3.187c-0.105-0.008-0.54-0.035-1.212-0.04
				c5.317,0.902,10.815,1.435,15.84,1.734c0.009-0.535,0.036-0.867,0.038-0.888l3.333,0.349c-0.006,0.066-0.029,0.32-0.039,0.714
				c6.023,0.258,11.022,0.207,13.614,0.147c-0.359,4.416-1.321,12.14-3.1,16.14c0.536,0.226,1.065,0.457,1.656,0.652l-1.054,3.182
				c-0.601-0.198-1.129-0.439-1.681-0.665c-0.892,6.231-8.367,39.675-66.395,48.545l-28.722,8.744l26.906-4.998
				c2.495-2.178,4.126-3.505,4.291-3.59l2.594,2.159c-0.01,0.005-0.157,0.128-0.327,0.272
				c58.623-10.586,64.564-46.928,65.072-51.501c3.31-5.519,4.148-19.021,4.233-20.576l0.101-1.843l-1.843,0.076
				C658.493,297.4,641.199,298.051,625.697,295.593z"/>
			<path id="XMLID_99_" style="fill:#060606;" d="M588.922,368.804c-0.165,0.085-1.796,1.411-4.291,3.59
				c-6.116,5.341-17.566,15.945-26.373,26.954c-13.967,17.459-18.995,30.378-18.995,30.378c4.745-7.511,10.25-14.816,15.867-21.591
				c1.174-1.416,2.35-2.794,3.528-4.16c15.267-17.699,30.334-30.882,32.531-32.739c0.17-0.144,0.317-0.267,0.327-0.272
				L588.922,368.804z"/>
			<path id="XMLID_100_" style="fill:#060606;" d="M613.945,268.713l0.176-1.947l-1.03,1.378l-0.004-0.003
				c0.093,1.527,0.17,3.177,0.241,4.959c0.73,0.812,1.208,1.958,1.208,3.267c0,1.142-0.374,2.159-0.947,2.945
				c0.139,3.03,0.333,6.414,0.636,10.194c0.462-0.836,0.81-1.718,0.977-2.31c0,0,0.8,4.115-0.61,6.413
				c0.038,0.397,0.062,0.749,0.103,1.153l3.333-0.337c-0.014-0.138-0.021-0.257-0.035-0.394c-0.789-7.982-1.048-14.414-1.255-19.583
				c-0.082-2.077-0.158-3.991-0.257-5.774c-0.311,0.03-0.582,0.11-0.918,0.11C615.042,268.785,614.501,268.762,613.945,268.713z"/>
			<path id="XMLID_101_" style="fill:#060606;" d="M518.073,238.369c0.067-0.306,0.115-0.601,0.18-0.906
				c-8.969,2.143-17.264,4.793-24.921,7.796c-0.08,2.078-0.076,3.355-0.073,3.623c9.332-3.74,19.633-6.97,31.008-9.358
				c0.557-0.126,55.584-12.215,74.221,2.609c10.512,8.364,13.273,13.233,14.267,21.978c1.196,0.569,2.006,1.109,2.238,1.275
				c0.424,0.016,0.854,0.04,1.252,0.021c-0.633-7.238-2.136-12.322-7.138-18.021l-3.289-0.142l0.134-3.109
				c-1.55-1.462-3.316-2.986-5.374-4.624c-3.489-2.777-8.069-4.681-13.24-5.954c-0.116,0.918-0.166,1.486-0.168,1.52l-3.345-0.242
				c0.011-0.152,0.053-0.871,0.173-2.004c-6.73-1.259-14.234-1.589-21.614-1.396c-0.864,1.653-1.298,2.65-1.32,2.703l-3.09-1.297
				c0.053-0.127,0.267-0.61,0.577-1.266c-17.743,0.878-33.77,4.4-34.991,4.674c-0.59,0.124-1.151,0.269-1.735,0.397
				c-0.166,0.817-0.294,1.615-0.474,2.439L518.073,238.369z"/>
			<path id="XMLID_34_" style="fill:#060606;" d="M491.724,436.204l6.478,6.819l0.887-2.638
				c0.141-0.409,13.431-41.404-24.715-60.689c-37.452-18.937-51.941-35.881-54.688-64.28l29.956-7.766l-28.083-3.239
				c5.43-8.219,27.293-37.665,71.486-55.441l-3.138,0.055c-0.004-0.23,0.006-1.068,0.063-2.413
				c-14.703,6.11-26.949,13.473-36.922,20.893c-1.109,2.988-1.684,4.733-1.72,4.841l-3.188-1.031c0-0.001,0.003-0.008,0.003-0.008
				c-21.285,17.108-30.71,33.348-30.876,33.641l-1.241,2.198l15.363,1.774l-15.287,3.963l0.118,1.406
				c1.088,13.24,4.643,24.236,11.552,34.062c0.889,1.264,1.85,2.503,2.851,3.731c8.997,11.027,22.608,20.681,42.239,30.608
				c30.375,15.355,26.044,44.698,23.822,53.871l-9.572-10.076l0.769,5.231c4.069,27.651-12.672,63.208-12.842,63.565
				c0,0,10.754-14.954,14.559-33.523C491.283,453.529,492.289,444.684,491.724,436.204z"/>
			<path id="XMLID_103_" style="fill:#060606;" d="M451.329,272.345c0.035-0.108,0.61-1.853,1.72-4.841
				c6.031-16.244,27.898-69.332,65.23-97.197c1.849,7.824,6.922,34.476-0.027,67.157c-0.065,0.304-0.113,0.6-0.18,0.906l3.274,0.717
				c0.18-0.825,0.309-1.622,0.474-2.439c7.899-39.002-0.833-69.321-0.923-69.629l-0.668-2.247l-1.912,1.36
				c-46.375,33.006-69.893,104.305-70.175,105.173c0,0-0.003,0.008-0.003,0.009L451.329,272.345z"/>
			<path id="XMLID_104_" style="fill:#060606;" d="M493.259,248.883c-0.003-0.268-0.007-1.546,0.073-3.623
				c0.44-11.45,3.494-46.827,24.149-67.141c0,0-15.196,8.477-21.523,30.965c-4.616,16.405-5.74,31.707-5.987,37.527
				c-0.057,1.344-0.067,2.182-0.063,2.412l3.138-0.055l0.214-0.004C493.259,248.957,493.259,248.908,493.259,248.883z"/>
			<path id="XMLID_35_" style="fill:#060606;" d="M524.423,369.092c-2.674-4.899-6.845-5.465-7.035-5.488
				c-15.664-1.822-26.283-7.212-31.55-10.537c8.612-0.62,17.398-3.064,17.808-3.162c0,0-35.406-6.704-44.539-12.276l27.421-16.738
				c-0.01,0.005-0.059,0.031-0.061,0.032l-2.437-1.421l-25.1,5.811l2.173-3.626c11.758-20.507,35.796-44.377,36.038-44.616
				c0,0-10.272,5.475-19.179,15.922c-6.918,8.114-14.518,17.873-19.75,26.999l-6.223,10.369l20.286-4.697l-20.371,12.436
				l2.851,1.316c0.825,0.38,16.24,7.416,33.4,10.081c-2.403,0.247-4.894,0.409-7.277,0.409h-4.419l3.306,2.93
				c0.521,0.46,12.966,11.277,37.223,14.098c0.026,0.003,2.665,0.416,4.491,3.768c2.55,4.666,4.531,17.259-10.822,49.15
				c0,0,1.251-1.326,3.066-3.887c-0.703,0.28-0.86,0.145-0.86,0.145s0.156,0.135,0.86-0.145c3.303-4.66,8.5-13.466,11.615-26.227
				C527.931,379.124,526.432,372.77,524.423,369.092z"/>
			<path id="XMLID_106_" style="fill:#060606;" d="M526.288,279.629l2.002-2.764c0.009,0.017,0.149,0.239,0.371,0.561
				c4.49-5.52,15.178-13.082,38.478-9.398c-0.24-0.706-0.445-1.157-0.493-1.244l2.917-1.648c0.025,0.043,0.735,1.264,1.371,3.305
				c9.225-0.344,8.508-7.922,8.508-7.922c-1.146,3.264-6.172,5.162-9.146,4.594c-15.422-2.885-26.032-1.202-33.256,1.985
				c-11.316,4.992-11.339,15.314-11.339,15.314c0.053-0.157,0.345-0.965,0.999-2.124
				C526.464,279.934,526.33,279.703,526.288,279.629z"/>
			<path id="XMLID_107_" style="fill:#060606;" d="M558.31,294.457c0.112-0.106,0.198-0.211,0.308-0.318
				c-19.924-3.715-28.25-14.23-29.958-16.712c-0.221-0.322-0.361-0.545-0.371-0.561l-2.002,2.764
				c0.042,0.074,0.176,0.305,0.411,0.66c1.627,2.454,8.195,10.914,24.151,15.578c8.13,2.376,17.147-0.569,17.147-0.569
				c-1.9-0.115-3.714-0.292-5.454-0.518c-0.292,0.292-0.533,0.581-0.842,0.874L558.31,294.457z"/>
			<path id="XMLID_108_" style="fill:#060606;" d="M566.645,266.785c0.048,0.086,0.253,0.538,0.493,1.244
				c1.224,3.598,3.426,14.554-8.52,26.111c-0.11,0.106-0.196,0.212-0.308,0.318l3.391,1.196c0.309-0.293,0.55-0.582,0.842-0.874
				c11.016-11.016,9.967-21.279,8.39-26.338c-0.636-2.041-1.346-3.262-1.371-3.305L566.645,266.785z"/>
			<path id="XMLID_109_" style="fill:#060606;" d="M559.619,286.773c3.105,0,5.622-3.111,5.622-6.948
				c0-3.838-2.517-6.949-5.622-6.949c-0.286,0-0.561,0.053-0.836,0.104c0.263,0.386,0.452,0.826,0.452,1.327
				c0,1.33-1.079,2.409-2.41,2.409c-0.734,0-1.368-0.346-1.81-0.864c-0.638,1.127-1.018,2.492-1.018,3.972
				C553.998,283.662,556.514,286.773,559.619,286.773z"/>
			<path id="XMLID_110_" style="fill:#060606;" d="M610.414,272c0.168,0.246,0.289,0.527,0.289,0.847
				c0,0.849-0.688,1.538-1.538,1.538c-0.468,0-0.873-0.221-1.155-0.551c-0.407,0.719-0.65,1.591-0.65,2.535
				c0,2.449,1.606,4.435,3.588,4.435c1.058,0,1.984-0.59,2.641-1.49c0.573-0.786,0.947-1.803,0.947-2.945
				c0-1.309-0.478-2.455-1.208-3.267c-0.636-0.707-1.457-1.168-2.38-1.168C610.765,271.933,610.59,271.967,610.414,272z"/>
			<path id="XMLID_111_" style="fill:#060606;" d="M615.096,265.461l-0.976,1.306l-0.176,1.947c0.556,0.049,1.097,0.072,1.617,0.072
				c0.336,0,0.606-0.079,0.918-0.11c5.937-0.577,7.659-6.294,7.659-6.294c-0.13,0.129-3.014,2.795-7.894,3.027
				c-0.398,0.019-0.828-0.005-1.252-0.021C615.023,265.409,615.087,265.453,615.096,265.461z"/>
			<path id="XMLID_112_" style="fill:#060606;" d="M606.121,262.835c-1.755,0.231-3.27,1.763-4.39,4.432
				c-1.504,3.597-2.353,9.987-0.438,16.276c0.731,2.401,1.829,4.788,3.499,6.999c2.311,3.059,4.612,4.604,6.852,4.603
				c0.308,0,0.615-0.028,0.92-0.087c0.957-0.183,1.591-0.735,2.028-1.448c1.411-2.298,0.61-6.413,0.61-6.413
				c-0.167,0.592-0.515,1.474-0.977,2.31c-0.6,1.085-1.398,2.091-2.294,2.26c-1.126,0.21-2.72-0.938-4.462-3.244
				c-5.159-6.827-4.36-15.867-2.645-19.96c0.799-1.912,1.571-2.383,1.735-2.404c3.202-0.421,6.475,1.946,6.527,1.984l0.004,0.003
				l1.03-1.378l0.976-1.306c-0.009-0.007-0.073-0.051-0.105-0.074c-0.232-0.167-1.042-0.707-2.238-1.275
				C611.064,263.308,608.663,262.506,606.121,262.835z"/>
			<path id="XMLID_113_" style="fill:#060606;" d="M593.622,313.696c-1.899,3.912-5.735,6.773-11.408,8.502
				c-17.252,5.269-45.852-1.221-57.192-7.82c-16.09-9.359-40.399,4.622-41.07,5.079l0.077,0.045l2.437,1.421
				c0.002-0.001,0.051-0.027,0.061-0.032c0.741-0.407,22.749-11.796,36.808-3.617c8.793,5.117,27.547,10.16,44.029,10.16
				c5.719,0,11.166-0.607,15.828-2.03c6.599-2.012,11.123-5.459,13.447-10.244c7.476-15.406,23.109-16.45,27.594-16.419
				c0.672,0.005,1.107,0.032,1.212,0.04l0.25-3.187l0.012-0.155c-0.027-0.001-0.428-0.026-1.109-0.029
				c-1.732-0.008-5.347,0.156-9.625,1.247C607.839,298.474,598.858,302.908,593.622,313.696z"/>
			<path id="XMLID_114_" style="fill:#060606;" d="M652.841,320.103c0.552,0.227,1.081,0.467,1.681,0.665l1.054-3.182
				c-0.591-0.195-1.12-0.425-1.656-0.652c-10.037-4.242-10.581-13.607-10.514-16.287c0.01-0.394,0.032-0.648,0.039-0.714
				l-3.333-0.349c-0.002,0.021-0.029,0.353-0.038,0.888C640.021,303.719,640.768,315.14,652.841,320.103z"/>
			<path id="XMLID_115_" style="fill:#060606;" d="M561.061,234.138c0.022-0.053,0.457-1.05,1.32-2.703
				c3.976-7.612,17.456-29.792,46.038-44.801l-2.469,57.501l-0.134,3.109l3.289,0.142l0.063,0.003l2.845-66.31l-2.54,1.256
				c-34.107,16.864-48.096,43.246-50.925,49.241c-0.309,0.655-0.524,1.139-0.577,1.266L561.061,234.138z"/>
			<path id="XMLID_116_" style="fill:#060606;" d="M590.337,210.46c-4.567,9.679-5.933,18.527-6.342,22.371
				c-0.121,1.133-0.162,1.852-0.173,2.004l3.345,0.242c0.002-0.034,0.053-0.602,0.168-1.52c0.67-5.313,3.842-23.907,16.602-38.564
				C603.937,194.993,596.178,198.083,590.337,210.46z"/>
			<path id="XMLID_117_" style="fill:#060606;" d="M297.026,646.435c0.016-0.956-0.563-2.147-2.242-2.373
				c-6.049-0.805-25.062-6.652-28.453-9.65c0.069-0.023,0.144-0.046,0.226-0.072c2.223-0.678,41.299-15.356,41.03-20.843
				c-0.02-0.396-0.226-1.728-2.082-2.098c-16.773-3.356-35.544-9.297-36.621-13.045c-0.033-0.115-0.101-0.35,0.432-0.854
				c2.832-2.675,7.179-5.67,11.385-8.567c8.469-5.83,14.06-9.683,11.929-13.091c-0.848-1.358-3.417-2.445-11.146-5.46
				c-8.03-3.133-22.98-8.966-23.412-13.101c-0.076-0.72,0.527-1.506,1.794-2.337c12.138-7.965,23.554-12.404,25.199-13.023
				c0.126-0.047,0.21-0.078,0.217-0.081l-3.018-2.445c-0.182,0.065-2.108,0.772-5.242,2.197c-4.389,1.996-11.165,5.413-18.995,10.55
				c-2.399,1.575-3.506,3.421-3.29,5.49c0.599,5.712,11.431,10.374,25.53,15.873c3.657,1.424,8.138,3.172,9.365,4.027
				c-0.779,1.722-6.793,5.859-10.832,8.642c-4.308,2.969-8.767,6.036-11.788,8.891c-1.751,1.657-1.598,3.352-1.352,4.213
				c2.026,7.048,28.392,13.15,37.364,15.035c-5.941,4.167-28.849,14.204-37.442,16.819c-2.619,0.799-3.067,2.2-2.982,3.237
				c0.445,5.46,24.594,11.506,30.545,12.783c-3.728,4.759-24.075,18.385-32.272,20.835c-0.628,0.188-1.203,0.327-1.675,0.374
				l0.315,3.149l0.018,0.183c0.453-0.045,0.995-0.163,1.61-0.342c2.39-0.694,5.918-2.351,9.831-4.498
				C282.317,660.629,296.964,650.194,297.026,646.435z"/>
			<path id="XMLID_118_" style="fill:#060606;" d="M459.097,561.301c-3.847,0.308-4.717,4.704-5.562,8.956
				c-0.707,3.562-1.509,7.601-3.873,8.822c-0.389,0.199-0.576,0.131-0.674,0.098c-1.398-0.494-3.051-4.266-4.255-7.022
				c-1.732-3.958-3.228-7.372-5.716-8.318c-0.953-0.36-1.948-0.317-2.907,0.124c-3.568,1.646-3.686,6.092-3.787,10.014
				c-0.111,4.108-0.331,6.851-2.324,7.516c-3.185,1.097-7.617-3.959-10.217-7.642c-0.689-0.976-1.257-1.861-1.63-2.503l-2.641,1.532
				l-0.259,0.151c0.096,0.165,0.28,0.476,0.541,0.893c1.068,1.705,3.432,5.184,6.379,7.79c2.102,1.858,4.498,3.275,6.939,3.275
				c0.648,0,1.3-0.098,1.948-0.314c4.373-1.457,4.501-6.321,4.612-10.609c0.082-3.09,0.167-6.285,2.154-7.094
				c1.172,0.445,2.714,3.961,3.836,6.531c1.768,4.04,3.441,7.857,6.207,8.838c1.087,0.383,2.236,0.288,3.332-0.282
				c3.797-1.964,4.766-6.845,5.621-11.149c0.573-2.888,1.224-6.161,2.543-6.269c1.922-0.032,3.385,5.477,4.161,8.505
				c0.76,2.949,1.267,4.703,2.351,5.493c0.185,0.135,0.35,0.304,0.576,0.38l1.061-3.182c0.311,0.105,0.445,0.282,0.449,0.285
				c-0.317-0.429-0.822-2.383-1.188-3.811c-0.348-1.354-0.749-2.85-1.233-4.301C464.304,564.304,462.461,560.937,459.097,561.301z"
				/>
			<path id="XMLID_119_" style="fill:#060606;" d="M517.379,550.633c-2.864,1.116-4.131,5.676-5.598,10.957
				c-0.776,2.796-2.223,7.994-3.323,8.308c-0.016,0.003-0.033,0.003-0.046,0.003c-1.074,0-2.904-4.632-3.787-6.875
				c-1.932-4.891-3.945-9.974-7.883-9.47c-3.97,0.475-4.926,6.066-5.846,11.471c-0.416,2.429-1.185,6.946-2.076,7.379
				c-0.91-0.193-2.324-4.338-3.005-6.328c-1.617-4.73-3.254-9.618-7.179-8.947c-3.202,0.557-5.065,5.289-6.138,10.073
				c-0.826,3.683-1.184,7.396-1.322,9.26l3.345,0.249c0.024-0.322,0.054-0.648,0.083-0.973c0.646-7.164,2.616-14.962,4.607-15.309
				c0.02-0.003,0.04-0.003,0.062-0.003c1.067,0,2.616,4.534,3.368,6.734c1.568,4.589,3.116,8.848,6.498,8.583
				c3.381-0.324,4.161-4.877,5.057-10.154c0.544-3.188,1.453-8.528,2.943-8.708c1.404-0.164,3.251,4.557,4.363,7.375
				c1.918,4.854,3.709,9.451,7.385,8.966c3.254-0.426,4.583-5.205,6.118-10.737c0.854-3.074,2.285-8.223,3.588-8.731
				c0.119-0.055,0.288,0.037,0.422,0.117c0.028,0.016,0.062,0.033,0.085,0.047l1.768-2.848c-0.457-0.284-0.881-0.438-1.287-0.542
				C518.684,550.3,517.916,550.418,517.379,550.633z"/>
		</g>
	</g>
</g>
</svg>
